<svg xmlns="http://www.w3.org/2000/svg" xmlns:xlink="http://www.w3.org/1999/xlink" width="500" zoomAndPan="magnify" viewBox="0 0 375 374.999991" height="500" preserveAspectRatio="xMidYMid meet" version="1.0"><defs><clipPath id="f25afaf5a4"><path d="M 71.605469 27.125 L 303.75 27.125 L 303.75 348.125 L 71.605469 348.125 Z M 71.605469 27.125 " clip-rule="nonzero"/></clipPath></defs><g clip-path="url(#f25afaf5a4)"><path fill="#000000" d="M 239.472656 332.363281 C 240.988281 323.011719 241.335938 311.792969 242.027344 302.167969 C 242.003906 301.90625 241.964844 301.664062 241.601562 301.742188 C 216.140625 306.804688 183.09375 309.070312 154.769531 305.144531 C 154.875 314.558594 155.628906 324.539062 156.894531 332.363281 C 157.578125 336.570312 157.683594 341.757812 161.152344 343.421875 C 164.921875 335.5625 165.113281 324.128906 167.535156 314.925781 C 166.703125 313.777344 164.441406 314.050781 164.558594 311.949219 C 176.953125 313.453125 194.566406 315.132812 210.101562 314.074219 C 214.195312 313.796875 218.011719 312.714844 221.597656 311.949219 C 225.085938 311.203125 229.5 309.203125 232.238281 311.523438 C 232.234375 313.789062 229.03125 312.855469 228.832031 314.925781 C 231.261719 324.128906 231.445312 335.5625 235.214844 343.421875 C 238.625 341.882812 238.78125 336.617188 239.472656 332.363281 Z M 247.136719 295.785156 C 247.292969 292.339844 245.238281 291.925781 245.433594 288.980469 C 245.554688 287.101562 248.445312 285.070312 248.410156 283.878906 C 248.410156 283.75 245.894531 280.171875 245.433594 279.621094 C 244.175781 278.132812 241.914062 277.507812 241.175781 275.796875 C 235.410156 282.410156 238.167969 296.101562 247.136719 295.785156 Z M 148.808594 284.304688 C 151.867188 287.464844 150.277344 291.535156 149.234375 295.785156 C 158.238281 296.410156 161.527344 281.09375 154.34375 275.796875 C 152.917969 279.050781 150.714844 281.527344 148.808594 284.304688 Z M 254.371094 246.023438 C 252.378906 244.269531 247.75 240.65625 246.28125 240.492188 C 243.972656 240.238281 238.449219 242.328125 234.789062 243.472656 C 230.957031 244.667969 226.875 246.167969 223.296875 246.875 C 198.566406 251.75 174.511719 244.34375 155.621094 236.667969 C 144.113281 245.296875 129.671875 251 129.230469 270.691406 C 133.621094 275.800781 139.039062 279.886719 145.828125 282.601562 C 148.515625 279.472656 151.039062 276.179688 153.066406 272.394531 C 147.03125 268.085938 151.515625 261.300781 157.320312 259.632812 C 160.171875 262.679688 156.425781 266.632812 156.894531 270.265625 C 157.40625 274.21875 160.75 277.609375 161.578125 281.324219 C 162.683594 286.285156 160.417969 290.941406 158.601562 294.085938 C 157.273438 296.375 153.824219 298.054688 154.34375 302.589844 C 183.820312 305.574219 216.148438 304.101562 242.027344 298.765625 C 237.800781 294.460938 234.445312 290.351562 234.367188 284.304688 C 234.292969 278.816406 238.996094 274.683594 239.472656 269.84375 C 239.851562 266.011719 235.742188 262.171875 239.472656 259.632812 C 244.472656 261.515625 249.664062 268.117188 243.304688 271.96875 C 245.828125 275.824219 249.1875 278.847656 252.242188 282.175781 C 257.808594 278.945312 263.253906 275.597656 267.140625 270.691406 C 267.511719 258.476562 260.789062 251.679688 254.371094 246.023438 Z M 277.355469 122.253906 C 276.679688 130.949219 267.054688 134.046875 259.480469 130.757812 C 255.878906 129.195312 254.898438 125.566406 252.242188 123.953125 C 248.457031 134.542969 227.648438 137.273438 222.449219 126.078125 C 218.460938 140.332031 194.222656 136.863281 190.523438 124.804688 C 188.050781 128.972656 187.171875 134.855469 182.433594 135.863281 C 174.0625 137.644531 168.496094 129.734375 167.964844 121.402344 C 164.332031 130.800781 151.441406 135.144531 139.019531 130.757812 C 145.078125 135.90625 148.203125 156.054688 134.339844 156.277344 C 140.082031 161.6875 138.222656 174.816406 127.953125 173.71875 C 134.585938 183.757812 120.609375 192.179688 113.480469 184.777344 C 104.496094 183.351562 98.429688 188.628906 98.582031 195.835938 C 98.695312 201.191406 102.828125 206.65625 108.796875 206.894531 C 110.476562 206.960938 111.910156 205.582031 113.054688 205.617188 C 115.167969 205.6875 116.820312 208.9375 119.867188 206.46875 C 129.332031 214.964844 139.503906 223.40625 151.363281 229.863281 C 167.265625 238.515625 185.660156 247.21875 210.953125 245.171875 C 236.277344 243.121094 264.09375 229.894531 278.207031 216.25 C 288.246094 206.546875 298.144531 193.40625 298.210938 177.121094 C 298.304688 155.101562 283.949219 146.894531 282.039062 125.230469 C 280.164062 124.125 279.136719 122.175781 277.355469 120.976562 C 277.355469 121.402344 277.355469 121.828125 277.355469 122.253906 Z M 258.628906 56.75 C 243.679688 41.816406 217.320312 34.535156 190.523438 33.359375 C 155.335938 31.8125 130.792969 44.992188 113.90625 63.984375 C 111.578125 62.902344 112.074219 59.007812 109.652344 58.027344 C 108.488281 61.402344 110.265625 67.714844 108.371094 70.363281 C 104.488281 70.308594 100.25 69.902344 100.285156 73.765625 C 100.839844 76.046875 104.785156 74.9375 104.542969 78.019531 C 103.550781 80.570312 101.050781 80.320312 99.007812 81.847656 C 91.945312 87.117188 88.402344 96.476562 84.109375 106.941406 C 79.65625 117.792969 78.507812 128.871094 77.726562 140.542969 C 76.214844 163.128906 87.191406 176.890625 96.453125 189.027344 C 100.441406 183.667969 105.664062 181.03125 114.332031 182.222656 C 117.265625 185.566406 125.101562 186.542969 126.675781 181.800781 C 128.222656 177.128906 123.261719 174.167969 124.972656 170.316406 C 133.289062 172.808594 137.59375 165.742188 133.910156 160.105469 C 132.011719 157.199219 127.859375 158.402344 127.101562 154.578125 C 133.800781 154.132812 141.28125 152.773438 142 146.070312 C 142.96875 136.980469 134.871094 128.851562 126.25 127.78125 C 135.101562 124.394531 143.878906 131.066406 153.917969 129.484375 C 162.988281 128.050781 163.8125 119.015625 170.089844 114.171875 C 171.628906 121.609375 171.988281 134.480469 181.160156 132.886719 C 184.582031 132.289062 188.5 124.253906 189.246094 119.277344 C 189.6875 116.335938 187.894531 112.824219 190.949219 111.617188 C 194.226562 112.859375 192 117.824219 192.652344 120.976562 C 194.167969 128.304688 202.773438 133.320312 209.675781 132.460938 C 215.9375 131.679688 219.828125 126.179688 220.742188 120.550781 C 221.027344 118.8125 219.757812 115.28125 222.449219 114.171875 C 226.332031 116.894531 224.246094 121.621094 225.851562 124.804688 C 230.507812 134.027344 246.859375 129.957031 249.6875 121.824219 C 250.535156 119.402344 248.78125 115.144531 251.816406 114.171875 C 255.171875 118.277344 255.960938 125.769531 261.605469 127.78125 C 278.667969 133.863281 274.917969 107.613281 271.824219 100.136719 C 277.496094 100.160156 277.820312 109.15625 277.78125 116.296875 C 280.324219 117.160156 280.261719 120.625 283.316406 120.976562 C 285.890625 92.796875 273.707031 71.816406 258.628906 56.75 Z M 252.667969 238.792969 C 260.050781 246.277344 276.78125 257.261719 271.824219 272.394531 C 269.015625 280.957031 257.75 283.761719 250.539062 288.980469 C 253.324219 293.628906 252.316406 300.542969 246.707031 301.316406 C 245.328125 313.917969 246.335938 335.5625 242.027344 343.847656 C 240.960938 345.902344 238.425781 348.03125 236.066406 348.101562 C 225.382812 348.425781 227.851562 324.417969 224.574219 316.628906 C 209.527344 319.921875 187.816406 318.949219 171.792969 317.050781 C 168.421875 324.089844 170.992188 347.285156 161.152344 348.101562 C 152.207031 348.847656 151.976562 333.8125 150.9375 323.855469 C 150.144531 316.28125 150.109375 308.347656 149.660156 301.742188 C 144.921875 300.390625 142.464844 294.148438 145.828125 289.40625 C 139.230469 283.703125 125.496094 280.296875 124.121094 270.691406 C 121.621094 253.273438 139.597656 242.878906 149.660156 234.964844 C 138.269531 228.625 129.066406 220.101562 119.441406 211.996094 C 107.429688 213.449219 95.414062 210.460938 93.472656 198.8125 C 93.265625 197.554688 93.933594 195.660156 93.472656 194.132812 C 92.492188 190.871094 88.3125 187.390625 86.238281 184.351562 C 79.242188 174.097656 72.773438 164.011719 71.765625 147.773438 C 70.65625 129.878906 75.515625 112.210938 80.707031 99.710938 C 84.664062 90.167969 88.191406 83.3125 96.027344 77.59375 C 93.296875 71.175781 97.507812 65.101562 104.113281 65.257812 C 101.394531 55.859375 109.191406 48.015625 114.332031 55.476562 C 130.089844 39.160156 149.746094 29.195312 177.753906 27.40625 C 205.933594 25.605469 236.039062 32.613281 255.222656 46.117188 C 272.136719 58.03125 287.785156 82.058594 289.273438 108.214844 C 289.398438 110.421875 288.71875 112.78125 288.847656 115.023438 C 288.953125 116.777344 289.851562 117.910156 289.699219 119.699219 C 289.503906 121.992188 288.136719 123.03125 287.996094 125.652344 C 287.757812 130.117188 290.378906 136.074219 292.253906 140.542969 C 296.996094 151.839844 303.929688 161.042969 303.746094 177.542969 C 303.511719 199 290.179688 213.679688 277.355469 223.90625 C 269.898438 229.851562 261.636719 235.011719 252.667969 238.792969 " fill-opacity="1" fill-rule="evenodd"/></g><path fill="#333244" d="M 99.007812 123.953125 C 99.878906 119.832031 101.925781 116.695312 102.839844 113.746094 C 104.453125 108.535156 103.144531 101.875 98.15625 102.265625 C 93.910156 102.59375 92.1875 111.082031 90.921875 116.722656 C 89.035156 125.121094 86.007812 141.089844 93.898438 143.945312 C 97.183594 138.871094 97.679688 130.230469 99.007812 123.953125 Z M 108.371094 90.351562 C 112.65625 95.480469 120.175781 87.65625 115.183594 83.546875 C 110.140625 83.046875 107.707031 85.152344 108.371094 90.351562 Z M 283.316406 120.976562 C 280.257812 120.628906 280.324219 117.160156 277.78125 116.296875 C 277.820312 109.15625 277.496094 100.160156 271.824219 100.136719 C 274.917969 107.613281 278.667969 133.863281 261.605469 127.78125 C 255.960938 125.769531 255.171875 118.277344 251.816406 114.171875 C 248.78125 115.144531 250.535156 119.402344 249.6875 121.828125 C 246.859375 129.957031 230.507812 134.027344 225.851562 124.804688 C 224.246094 121.621094 226.332031 116.890625 222.449219 114.171875 C 219.757812 115.285156 221.027344 118.808594 220.742188 120.550781 C 219.828125 126.179688 215.9375 131.679688 209.675781 132.460938 C 202.773438 133.320312 194.167969 128.304688 192.648438 120.976562 C 192 117.824219 194.226562 112.859375 190.949219 111.621094 C 187.894531 112.824219 189.6875 116.335938 189.246094 119.273438 C 188.5 124.253906 184.582031 132.289062 181.160156 132.882812 C 171.988281 134.480469 171.628906 121.613281 170.089844 114.171875 C 163.8125 119.015625 162.988281 128.050781 153.917969 129.484375 C 143.878906 131.066406 135.101562 124.394531 126.25 127.78125 C 134.871094 128.851562 142.96875 136.980469 142 146.070312 C 141.28125 152.777344 133.800781 154.132812 127.101562 154.578125 C 127.859375 158.402344 132.011719 157.199219 133.910156 160.109375 C 137.59375 165.742188 133.289062 172.808594 124.972656 170.316406 C 123.261719 174.167969 128.222656 177.128906 126.675781 181.800781 C 125.101562 186.542969 117.265625 185.566406 114.332031 182.222656 C 105.664062 181.03125 100.441406 183.667969 96.453125 189.027344 C 87.191406 176.890625 76.214844 163.128906 77.726562 140.542969 C 78.507812 128.871094 79.65625 117.792969 84.109375 106.941406 C 88.402344 96.476562 91.945312 87.117188 99.007812 81.847656 C 101.050781 80.320312 103.550781 80.566406 104.539062 78.019531 C 104.785156 74.9375 100.839844 76.046875 100.285156 73.765625 C 100.25 69.902344 104.488281 70.3125 108.371094 70.363281 C 110.265625 67.71875 108.488281 61.402344 109.652344 58.027344 C 112.074219 59.007812 111.578125 62.90625 113.90625 63.980469 C 130.792969 44.992188 155.335938 31.8125 190.523438 33.359375 C 217.320312 34.535156 243.679688 41.816406 258.628906 56.75 C 273.707031 71.816406 285.890625 92.796875 283.316406 120.976562 " fill-opacity="1" fill-rule="evenodd"/><path fill="#61617f" d="M 110.5 89.503906 C 110.832031 89.597656 111.339844 89.511719 111.351562 89.925781 C 113.527344 89.976562 114.234375 88.554688 114.757812 86.949219 C 113.039062 84.160156 108.777344 86.558594 110.5 89.503906 Z M 115.183594 83.546875 C 120.175781 87.65625 112.65625 95.476562 108.371094 90.351562 C 107.707031 85.152344 110.140625 83.046875 115.183594 83.546875 " fill-opacity="1" fill-rule="evenodd"/><path fill="#61617f" d="M 114.757812 86.949219 C 114.234375 88.554688 113.527344 89.976562 111.351562 89.925781 C 111.339844 89.511719 110.832031 89.597656 110.5 89.503906 C 108.777344 86.554688 113.039062 84.160156 114.757812 86.949219 " fill-opacity="1" fill-rule="evenodd"/><path fill="#61617f" d="M 97.304688 119.699219 C 98.222656 116.132812 102.492188 111.460938 101.136719 107.367188 C 100.890625 106.621094 98.785156 104.425781 97.730469 105.238281 C 92.347656 109.402344 88.945312 135.113281 93.472656 140.96875 C 95.128906 134.335938 95.429688 127.003906 97.304688 119.699219 Z M 93.898438 143.945312 C 86.007812 141.089844 89.035156 125.121094 90.921875 116.722656 C 92.1875 111.082031 93.910156 102.589844 98.15625 102.261719 C 103.144531 101.875 104.453125 108.535156 102.839844 113.746094 C 101.925781 116.695312 99.878906 119.835938 99.007812 123.953125 C 97.679688 130.230469 97.183594 138.867188 93.898438 143.945312 " fill-opacity="1" fill-rule="evenodd"/><path fill="#61617f" d="M 93.472656 140.96875 C 88.945312 135.113281 92.347656 109.402344 97.730469 105.238281 C 98.785156 104.425781 100.890625 106.621094 101.136719 107.367188 C 102.492188 111.460938 98.222656 116.132812 97.304688 119.703125 C 95.429688 127.003906 95.128906 134.335938 93.472656 140.96875 " fill-opacity="1" fill-rule="evenodd"/><path fill="#cc9d7d" d="M 144.554688 209.445312 C 147.078125 210.03125 149.691406 207.273438 150.9375 205.191406 C 148.050781 205.851562 145.328125 206.675781 144.554688 209.445312 Z M 143.703125 205.191406 C 145.347656 205.824219 147.265625 203.484375 147.957031 201.789062 C 145.457031 201.839844 144.007812 202.941406 143.703125 205.191406 Z M 106.242188 194.558594 C 107.347656 195.582031 109.402344 195.65625 110.5 196.683594 C 106.359375 200.488281 116.46875 206.414062 116.460938 199.660156 C 115.027344 200.730469 112.199219 200.933594 112.203125 198.386719 C 112.28125 197.1875 114.226562 197.855469 113.90625 196.257812 C 113.515625 193.460938 107.960938 192.230469 106.242188 194.558594 Z M 280.335938 192.007812 C 280.332031 193.949219 281.734375 194.957031 283.316406 194.132812 C 283.46875 192.339844 281.695312 190.960938 280.335938 192.007812 Z M 283.738281 188.179688 C 284.429688 188.765625 284.789062 189.683594 286.296875 189.453125 C 287.195312 187.242188 284.125 186.554688 283.738281 188.179688 Z M 205.421875 189.453125 C 204.394531 188.636719 206.4375 186.835938 204.144531 186.902344 C 202.140625 188.972656 198.5 193.125 200.3125 196.257812 C 202.683594 196.074219 202.296875 193.136719 204.144531 192.433594 C 204.691406 193.445312 206.910156 192.789062 207.121094 194.132812 C 203.75 208.855469 207.921875 228.035156 221.59375 227.734375 C 236.398438 227.40625 235.214844 202.863281 229.257812 191.582031 C 231.507812 189.273438 232.648438 192.175781 235.214844 191.15625 C 234.753906 187.648438 232.769531 185.660156 229.257812 185.203125 C 228.417969 191.691406 211.039062 190.820312 205.421875 189.453125 Z M 157.746094 165.636719 C 154.652344 177.023438 158.726562 187.816406 165.835938 192.007812 C 175.882812 197.925781 191.871094 196.042969 197.761719 187.328125 C 205.222656 176.28125 200.976562 156.796875 192.652344 151.175781 C 189.375 148.960938 182.269531 147.097656 177.328125 147.773438 C 167.78125 149.078125 160.253906 156.414062 157.746094 165.636719 Z M 231.382812 171.589844 C 235.5 187.414062 262.652344 190.296875 271.394531 177.96875 C 276.46875 170.820312 276.824219 157.445312 272.675781 149.046875 C 269.398438 142.421875 260.953125 136.925781 250.964844 138.414062 C 236.773438 140.535156 227.273438 155.773438 231.382812 171.589844 Z M 277.355469 120.976562 C 279.136719 122.175781 280.164062 124.125 282.039062 125.226562 C 283.949219 146.890625 298.304688 155.101562 298.214844 177.121094 C 298.144531 193.40625 288.246094 206.546875 278.207031 216.25 C 264.09375 229.894531 236.277344 243.121094 210.953125 245.171875 C 185.660156 247.21875 167.265625 238.515625 151.363281 229.863281 C 139.503906 223.40625 129.332031 214.964844 119.867188 206.46875 C 116.820312 208.9375 115.167969 205.6875 113.054688 205.617188 C 111.910156 205.578125 110.476562 206.960938 108.796875 206.894531 C 102.828125 206.65625 98.695312 201.191406 98.582031 195.835938 C 98.429688 188.628906 104.496094 183.351562 113.480469 184.777344 C 120.609375 192.179688 134.585938 183.757812 127.953125 173.71875 C 138.222656 174.820312 140.082031 161.6875 134.339844 156.277344 C 148.203125 156.054688 145.078125 135.90625 139.019531 130.757812 C 151.441406 135.144531 164.332031 130.800781 167.960938 121.402344 C 168.496094 129.734375 174.0625 137.644531 182.433594 135.863281 C 187.171875 134.855469 188.050781 128.96875 190.523438 124.804688 C 194.222656 136.863281 218.460938 140.335938 222.449219 126.078125 C 227.648438 137.277344 248.457031 134.542969 252.242188 123.953125 C 254.902344 125.566406 255.878906 129.195312 259.480469 130.757812 C 267.054688 134.046875 276.679688 130.949219 277.355469 122.25 C 277.355469 121.828125 277.355469 121.402344 277.355469 120.976562 " fill-opacity="1" fill-rule="evenodd"/><path fill="#000000" d="M 233.089844 168.1875 C 235.207031 181.683594 255.148438 187.207031 265.863281 179.671875 C 276.253906 172.363281 273.789062 148.203125 264.160156 143.089844 C 261.308594 141.578125 253.222656 140.3125 249.6875 140.964844 C 238.96875 142.949219 231.125 155.6875 233.089844 168.1875 Z M 250.964844 138.414062 C 260.953125 136.925781 269.398438 142.421875 272.675781 149.046875 C 276.824219 157.445312 276.46875 170.820312 271.398438 177.96875 C 262.652344 190.296875 235.5 187.414062 231.386719 171.589844 C 227.273438 155.773438 236.773438 140.53125 250.964844 138.414062 " fill-opacity="1" fill-rule="evenodd"/><path fill="#fffffb" d="M 253.945312 166.484375 C 259.636719 165.957031 260.117188 154.441406 253.09375 155.429688 C 245.945312 156.433594 247.867188 167.050781 253.945312 166.484375 Z M 249.6875 140.96875 C 253.21875 140.3125 261.308594 141.578125 264.160156 143.09375 C 273.789062 148.203125 276.253906 172.363281 265.863281 179.671875 C 255.148438 187.207031 235.207031 181.683594 233.089844 168.1875 C 231.125 155.6875 238.96875 142.949219 249.6875 140.96875 " fill-opacity="1" fill-rule="evenodd"/><path fill="#000000" d="M 160.300781 164.785156 C 153.046875 186.191406 176.011719 199.742188 191.800781 189.027344 C 202.003906 182.105469 200.804688 159.058594 190.949219 152.878906 C 188.195312 151.148438 179.792969 149.644531 176.050781 150.324219 C 168.585938 151.683594 162.386719 158.640625 160.300781 164.785156 Z M 177.328125 147.773438 C 182.269531 147.097656 189.375 148.960938 192.648438 151.175781 C 200.976562 156.796875 205.222656 176.28125 197.761719 187.328125 C 191.871094 196.042969 175.882812 197.925781 165.835938 192.007812 C 158.726562 187.816406 154.652344 177.023438 157.746094 165.636719 C 160.253906 156.410156 167.78125 149.078125 177.328125 147.773438 " fill-opacity="1" fill-rule="evenodd"/><path fill="#fffffb" d="M 180.734375 175.84375 C 185.585938 174.984375 186.453125 162.460938 178.179688 165.210938 C 172.382812 167.136719 174.0625 177.027344 180.734375 175.84375 Z M 176.050781 150.324219 C 179.792969 149.644531 188.195312 151.148438 190.949219 152.875 C 200.808594 159.058594 202.003906 182.105469 191.800781 189.027344 C 176.011719 199.742188 153.046875 186.191406 160.300781 164.785156 C 162.386719 158.640625 168.585938 151.683594 176.050781 150.324219 " fill-opacity="1" fill-rule="evenodd"/><path fill="#000000" d="M 253.09375 155.429688 C 260.121094 154.441406 259.636719 165.957031 253.945312 166.484375 C 247.867188 167.050781 245.949219 156.429688 253.09375 155.429688 " fill-opacity="1" fill-rule="evenodd"/><path fill="#000000" d="M 178.179688 165.210938 C 186.453125 162.460938 185.585938 174.984375 180.734375 175.84375 C 174.0625 177.03125 172.382812 167.136719 178.179688 165.210938 " fill-opacity="1" fill-rule="evenodd"/><path fill="#000000" d="M 219.46875 194.132812 C 219.871094 198.984375 223.289062 206.640625 220.742188 210.292969 C 216.75 207.765625 218.640625 199.355469 216.914062 194.558594 C 214.128906 194.789062 212.066406 194.296875 209.675781 194.132812 C 207.878906 207.171875 210.625 224.808594 222.023438 224.332031 C 234.839844 223.792969 231 200.042969 226.707031 192.433594 C 224.820312 193.523438 222.234375 193.921875 219.46875 194.132812 Z M 229.257812 185.203125 C 232.769531 185.660156 234.753906 187.648438 235.214844 191.15625 C 232.648438 192.175781 231.507812 189.273438 229.257812 191.582031 C 235.214844 202.863281 236.398438 227.40625 221.597656 227.734375 C 207.921875 228.035156 203.75 208.855469 207.121094 194.132812 C 206.90625 192.789062 204.691406 193.441406 204.144531 192.433594 C 202.296875 193.136719 202.683594 196.074219 200.3125 196.257812 C 198.5 193.121094 202.140625 188.972656 204.144531 186.902344 C 206.4375 186.835938 204.394531 188.636719 205.421875 189.453125 C 211.039062 190.820312 228.417969 191.691406 229.257812 185.203125 " fill-opacity="1" fill-rule="evenodd"/><path fill="#000000" d="M 286.296875 189.453125 C 284.789062 189.679688 284.429688 188.765625 283.738281 188.179688 C 284.121094 186.554688 287.191406 187.242188 286.296875 189.453125 " fill-opacity="1" fill-rule="evenodd"/><path fill="#000000" d="M 283.316406 194.132812 C 281.734375 194.957031 280.328125 193.949219 280.335938 192.007812 C 281.695312 190.960938 283.46875 192.339844 283.316406 194.132812 " fill-opacity="1" fill-rule="evenodd"/><path fill="#ff9999" d="M 226.707031 192.433594 C 231 200.039062 234.839844 223.792969 222.023438 224.332031 C 210.625 224.808594 207.878906 207.171875 209.675781 194.132812 C 212.066406 194.296875 214.128906 194.785156 216.914062 194.558594 C 218.640625 199.355469 216.75 207.765625 220.746094 210.292969 C 223.289062 206.636719 219.871094 198.980469 219.46875 194.132812 C 222.238281 193.917969 224.820312 193.523438 226.707031 192.433594 " fill-opacity="1" fill-rule="evenodd"/><path fill="#000000" d="M 113.90625 196.257812 C 114.226562 197.855469 112.28125 197.1875 112.203125 198.386719 C 112.199219 200.933594 115.027344 200.730469 116.460938 199.660156 C 116.46875 206.414062 106.359375 200.488281 110.5 196.683594 C 109.402344 195.65625 107.347656 195.582031 106.242188 194.558594 C 107.960938 192.230469 113.515625 193.460938 113.90625 196.257812 " fill-opacity="1" fill-rule="evenodd"/><path fill="#000000" d="M 147.957031 201.789062 C 147.265625 203.480469 145.347656 205.824219 143.703125 205.191406 C 144.007812 202.941406 145.457031 201.839844 147.957031 201.789062 " fill-opacity="1" fill-rule="evenodd"/><path fill="#000000" d="M 150.9375 205.191406 C 149.691406 207.273438 147.078125 210.03125 144.554688 209.445312 C 145.328125 206.675781 148.050781 205.851562 150.9375 205.191406 " fill-opacity="1" fill-rule="evenodd"/><path fill="#696c7f" d="M 267.140625 270.691406 C 263.253906 275.597656 257.808594 278.945312 252.242188 282.175781 C 249.1875 278.847656 245.828125 275.824219 243.304688 271.96875 C 249.667969 268.117188 244.472656 261.515625 239.472656 259.632812 C 235.742188 262.171875 239.851562 266.011719 239.472656 269.839844 C 238.996094 274.683594 234.292969 278.816406 234.367188 284.304688 C 234.445312 290.351562 237.800781 294.460938 242.027344 298.765625 C 216.148438 304.097656 183.820312 305.574219 154.34375 302.589844 C 153.824219 298.054688 157.273438 296.375 158.601562 294.085938 C 160.421875 290.941406 162.683594 286.285156 161.578125 281.324219 C 160.75 277.609375 157.40625 274.21875 156.894531 270.265625 C 156.429688 266.632812 160.171875 262.679688 157.320312 259.632812 C 151.515625 261.300781 147.03125 268.085938 153.066406 272.394531 C 151.039062 276.179688 148.515625 279.472656 145.828125 282.601562 C 139.039062 279.886719 133.621094 275.800781 129.230469 270.691406 C 129.671875 251 144.113281 245.296875 155.621094 236.667969 C 174.511719 244.34375 198.566406 251.75 223.296875 246.875 C 226.875 246.167969 230.960938 244.667969 234.792969 243.472656 C 238.449219 242.328125 243.972656 240.238281 246.28125 240.492188 C 247.75 240.65625 252.378906 244.269531 254.371094 246.023438 C 260.789062 251.679688 267.511719 258.476562 267.140625 270.691406 " fill-opacity="1" fill-rule="evenodd"/><path fill="#cc9d7d" d="M 154.34375 275.796875 C 161.527344 281.09375 158.238281 296.410156 149.234375 295.785156 C 150.277344 291.535156 151.867188 287.460938 148.808594 284.304688 C 150.714844 281.527344 152.917969 279.050781 154.34375 275.796875 " fill-opacity="1" fill-rule="evenodd"/><path fill="#cc9d7d" d="M 241.175781 275.796875 C 241.914062 277.507812 244.175781 278.132812 245.433594 279.621094 C 245.894531 280.171875 248.410156 283.75 248.414062 283.878906 C 248.445312 285.070312 245.558594 287.101562 245.433594 288.980469 C 245.238281 291.925781 247.292969 292.339844 247.136719 295.785156 C 238.167969 296.101562 235.410156 282.40625 241.175781 275.796875 " fill-opacity="1" fill-rule="evenodd"/><path fill="#46465b" d="M 235.214844 343.421875 C 231.445312 335.5625 231.261719 324.128906 228.832031 314.925781 C 229.03125 312.855469 232.234375 313.789062 232.238281 311.523438 C 229.5 309.203125 225.085938 311.203125 221.597656 311.949219 C 218.011719 312.714844 214.195312 313.796875 210.101562 314.078125 C 194.566406 315.132812 176.953125 313.453125 164.558594 311.949219 C 164.441406 314.050781 166.703125 313.777344 167.535156 314.925781 C 165.113281 324.128906 164.921875 335.5625 161.152344 343.421875 C 157.679688 341.757812 157.578125 336.570312 156.894531 332.363281 C 155.628906 324.539062 154.875 314.558594 154.769531 305.144531 C 183.09375 309.070312 216.140625 306.804688 241.601562 301.742188 C 241.960938 301.664062 242.003906 301.90625 242.027344 302.167969 C 241.335938 311.792969 240.984375 323.011719 239.472656 332.363281 C 238.785156 336.617188 238.625 341.882812 235.214844 343.421875 " fill-opacity="1" fill-rule="evenodd"/></svg>